<?xml version="1.0" encoding="UTF-8"?>
<svg width="32px" height="32px" viewBox="0 0 32 32" version="1.1" xmlns="http://www.w3.org/2000/svg" xmlns:xlink="http://www.w3.org/1999/xlink">
    <!-- Generator: Sketch 51.2 (57519) - http://www.bohemiancoding.com/sketch -->
    <title>Rectangle 3</title>
    <desc>Created with Sketch.</desc>
    <defs></defs>
    <g id="Page-1" stroke="none" stroke-width="1" fill="none" fill-rule="evenodd">
        <g id="Waitlist" transform="translate(-948.000000, -1495.000000)" fill-rule="nonzero">
            <g id="ic-instagram" transform="translate(948.000000, 1495.000000)">
                <rect id="Rectangle-3" stroke="#979797" fill="#D8D8D8" opacity="0" x="0.5" y="0.5" width="31" height="31"></rect>
                <g id="Instagram-Icon" transform="translate(6.000000, 6.000000)" fill="#FFFFFF">
                    <path d="M6,0 L15,0 C18.3137085,0 21,2.44208318 21,5.45454545 L21,13.6363636 C21,16.6488259 18.3137085,19.0909091 15,19.0909091 L6,19.0909091 C2.6862915,19.0909091 0,16.6488259 0,13.6363636 L0,5.45454545 C0,2.44208318 2.6862915,0 6,0 Z M6,1.81818182 C3.790861,1.81818182 2,3.44623727 2,5.45454545 L2,13.6363636 C2,15.6446718 3.790861,17.2727273 6,17.2727273 L15,17.2727273 C17.209139,17.2727273 19,15.6446718 19,13.6363636 L19,5.45454545 C19,3.44623727 17.209139,1.81818182 15,1.81818182 L6,1.81818182 Z M10.5,4.54545455 C13.5375661,4.54545455 16,6.7840308 16,9.54545455 C16,12.3068783 13.5375661,14.5454545 10.5,14.5454545 C7.46243388,14.5454545 5,12.3068783 5,9.54545455 C5.10332302,6.82388711 7.50627582,4.63938457 10.5,4.54545455 Z M10.58,6.36363636 C8.63571702,6.41211307 7.07150771,7.83252557 7.016,9.6 C7.01573448,10.4248137 7.3761069,11.2159012 8.01775519,11.7990473 C8.65940348,12.3821934 9.52970506,12.7095734 10.437,12.7090909 C12.3818867,12.661539 13.9469633,11.2407376 14.002,9.47272727 C14.0020002,8.64782998 13.6414052,7.85674488 12.9995982,7.27362493 C12.3577911,6.69050499 11.4873869,6.36315397 10.58,6.36363636 Z M16,3.63636364 C16.5522847,3.63636364 17,4.0433775 17,4.54545455 C17,5.04753159 16.5522847,5.45454545 16,5.45454545 C15.4477153,5.45454545 15,5.04753159 15,4.54545455 C15,4.0433775 15.4477153,3.63636364 16,3.63636364 Z" id="Instagram_Icon"></path>
                </g>
            </g>
        </g>
    </g>
</svg>