<?xml version="1.0" encoding="UTF-8"?>
<svg width="32px" height="32px" viewBox="0 0 32 32" version="1.1" xmlns="http://www.w3.org/2000/svg" xmlns:xlink="http://www.w3.org/1999/xlink">
    <!-- Generator: Sketch 51.2 (57519) - http://www.bohemiancoding.com/sketch -->
    <title>Rectangle 3 Copy</title>
    <desc>Created with Sketch.</desc>
    <defs></defs>
    <g id="Page-1" stroke="none" stroke-width="1" fill="none" fill-rule="evenodd">
        <g id="Waitlist" transform="translate(-900.000000, -1495.000000)" fill-rule="nonzero">
            <g id="ic-twitter" transform="translate(900.000000, 1495.000000)">
                <rect id="Rectangle-3-Copy" stroke="#979797" fill="#D8D8D8" opacity="0" x="0.5" y="0.5" width="31" height="31"></rect>
                <g id="Twitter-Icon-1" transform="translate(6.000000, 8.000000)" fill="#FFFFFF">
                    <path d="M17.962,3.62727273 C17.971,3.78181818 17.975,3.94545455 17.975,4.10909091 C17.9726872,6.90833801 16.7356378,9.58982036 14.5408306,11.5531465 C12.3460234,13.5164726 9.37680793,14.5976303 6.298,14.5545455 C4.07289022,14.5564135 1.89259783,13.9859616 0.009,12.9090909 C0.328,12.9363636 0.656,12.9545455 0.987,12.9545455 C2.83148537,12.9571598 4.62494075,12.4040978 6.087,11.3818182 C4.34064387,11.3597817 2.80134797,10.3344358 2.252,8.82727273 C2.50575266,8.87445357 2.76399767,8.89881343 3.023,8.9 C3.38815933,8.89967073 3.75177398,8.85689972 4.105,8.77272727 C2.2044747,8.43857442 0.82678259,6.93244274 0.812,5.17272727 C0.810166988,5.15762157 0.810166988,5.14237843 0.812,5.12727273 C1.38368069,5.4088608 2.02007606,5.56455005 2.67,5.58181818 C1.53327714,4.90926139 0.847148829,3.76024268 0.846,2.52727273 C0.8443654,1.87797659 1.03577993,1.24034697 1.4,0.681818182 C3.50279682,2.98180239 6.57107582,4.37367114 9.857,4.51818182 C9.78966087,4.2436266 9.75612135,3.96311429 9.757,3.68181818 C9.77515726,1.63897566 11.6098497,-0.00451826497 13.857,0.00909090909 C14.9864795,0.00644310907 16.0680882,0.423532781 16.851,1.16363636 C17.7703552,1.00565368 18.6527055,0.704237301 19.459,0.272727273 C19.1517268,1.12810144 18.5117057,1.85216579 17.659,2.30909091 C18.4712333,2.22013266 19.2648915,2.02413743 20.015,1.72727273 C19.4611022,2.46707945 18.765765,3.11059659 17.962,3.62727273 Z" id="Twitter_Icon"></path>
                </g>
            </g>
        </g>
    </g>
</svg>