<?xml version="1.0" encoding="UTF-8"?>
<svg width="56px" height="56px" viewBox="0 0 56 56" version="1.1" xmlns="http://www.w3.org/2000/svg" xmlns:xlink="http://www.w3.org/1999/xlink">
    <!-- Generator: Sketch 51.2 (57519) - http://www.bohemiancoding.com/sketch -->
    <title>Rectangle</title>
    <desc>Created with Sketch.</desc>
    <defs>
        <linearGradient x1="150.202672%" y1="181.563105%" x2="-16.3737387%" y2="-30.2733708%" id="linearGradient-1">
            <stop stop-color="#00FFE7" offset="0%"></stop>
            <stop stop-color="#8634FF" offset="100%"></stop>
            <stop stop-color="#8634FF" offset="100%"></stop>
        </linearGradient>
    </defs>
    <g id="Page-1" stroke="none" stroke-width="1" fill="none" fill-rule="evenodd">
        <g id="Waitlist" transform="translate(-44.000000, -12.000000)" fill-rule="nonzero">
            <g id="Logo" transform="translate(44.000000, 12.000000)">
                <rect id="Rectangle" stroke="#979797" fill="#D8D8D8" opacity="0" x="0.5" y="0.5" width="55" height="55"></rect>
                <g id="Group" transform="translate(12.000000, 7.000000)" fill="url(#linearGradient-1)">
                    <path d="M12.7849265,24.0952907 C12.2967462,24.0952907 11.9009979,23.7035399 11.9009979,23.2202907 C11.9009979,22.7370415 12.2967462,22.3452907 12.7849265,22.3452907 L15.2248156,22.3452907 C18.9838739,22.3452907 21.5040732,21.4435302 23.002204,19.8349434 C24.2032026,18.5453961 24.7449424,16.7996379 24.7449424,14.7280532 C24.7449424,9.72231408 21.5263318,7.24649987 14.7624576,7.24649987 L7.48882595,7.24649987 C7.00064568,7.24649987 6.60489738,6.85474903 6.60489738,6.37149987 C6.60489738,5.88825071 7.00064568,5.49649987 7.48882595,5.49649987 L14.7624576,5.49649987 C22.4190325,5.49649987 26.5127995,8.64550038 26.5127995,14.7280532 C26.5127995,17.2036429 25.8409439,19.3686999 24.3019768,21.0211338 C22.4365631,23.024083 19.4428006,24.0952907 15.2248156,24.0952907 L12.7849265,24.0952907 Z M1.12799721,5.48943149 L14.5564134,5.48943149 C15.0445937,5.48943149 15.440342,5.88118233 15.440342,6.36443149 C15.440342,6.84768064 15.0445937,7.23943149 14.5564134,7.23943149 L2.01192578,7.23943149 L2.01192578,40.9296233 C2.01192578,41.4128724 1.61617748,41.8046233 1.12799721,41.8046233 C0.639816937,41.8046233 0.244068635,41.4128724 0.244068635,40.9296233 L0.244068635,6.36443149 C0.244068635,5.88118233 0.639816937,5.48943149 1.12799721,5.48943149 Z M14.4666366,0.125431165 C21.9781468,0.148207124 25.269076,1.07463586 27.8773216,3.21613828 C31.0548487,5.84733457 32.8737245,9.98249351 32.8737245,14.5364989 C32.8737245,18.9130893 31.078793,23.4922247 28.4329474,25.7387848 C25.1648533,28.4875599 22.0661646,29.4588091 15.5450635,29.4588091 L12.7849265,29.4588091 C12.2967462,29.4588091 11.9009979,29.0670583 11.9009979,28.5838091 C11.9009979,28.10056 12.2967462,27.7088091 12.7849265,27.7088091 L15.5450635,27.7088091 C21.6712687,27.7088091 24.3638971,26.8648349 27.2851077,24.4078342 C29.5029259,22.5246971 31.1058673,18.4353567 31.1058673,14.5364989 C31.1058673,10.4847914 29.5051723,6.84565972 26.7458661,4.56076724 C24.466652,2.68942493 21.517154,1.875 14.1800066,1.875 L9.34226098,1.875 L7.60661907,1.875 C7.1184388,1.875 6.7226905,1.48324916 6.7226905,1 C6.7226905,0.516750844 7.1184388,0.125 7.60661907,0.125 L14.4386203,0.125 C14.4479939,0.125 14.4573333,0.12514443 14.4666366,0.125431165 Z" id="Combined-Shape"></path>
                    <path d="M12.7895166,12.1373907 C12.3013363,12.1373907 11.905588,11.7456398 11.905588,11.2623907 C11.905588,10.7791415 12.3013363,10.3873907 12.7895166,10.3873907 L13.1488992,10.3873907 C15.2765358,10.3873907 16.2826659,10.6652066 17.0984724,11.3350322 C18.0712131,12.1405239 18.6207564,13.3898938 18.6207564,14.7494893 C18.6207564,16.0542628 18.0871032,17.4156909 17.2454658,18.1303079 C16.2759861,18.9457317 15.3270136,19.2431765 13.5005475,19.2431765 L12.7895166,19.2431765 C12.3013363,19.2431765 11.905588,18.8514257 11.905588,18.3681765 C11.905588,17.8849273 12.3013363,17.4931765 12.7895166,17.4931765 L13.5005475,17.4931765 C14.9321177,17.4931765 15.4750298,17.3230068 16.097626,16.7993573 C16.5112361,16.4481632 16.8528992,15.5765302 16.8528992,14.7494893 C16.8528992,13.8921917 16.5215367,13.138849 15.967017,12.6796611 C15.513183,12.3070421 14.8987784,12.1373907 13.1488992,12.1373907 L12.7895166,12.1373907 Z" id="Path" transform="translate(15.263172, 14.815284) scale(-1, 1) translate(-15.263172, -14.815284) "></path>
                    <path d="M6.60489738,11.3790087 C6.60489738,10.8957596 7.00064568,10.5040087 7.48882595,10.5040087 C7.97700622,10.5040087 8.37275452,10.8957596 8.37275452,11.3790087 L8.37275452,40.9296233 C8.37275452,41.4128724 7.97700622,41.8046233 7.48882595,41.8046233 C7.00064568,41.8046233 6.60489738,41.4128724 6.60489738,40.9296233 L6.60489738,11.3790087 Z" id="Stroke-49"></path>
                </g>
            </g>
        </g>
    </g>
</svg>